<?xml version="1.0" encoding="UTF-8" standalone="no"?>
<!-- Created with Inkscape (http://www.inkscape.org/) -->
<svg xmlns:dc="http://purl.org/dc/elements/1.1/" xmlns:cc="http://creativecommons.org/ns#" xmlns:rdf="http://www.w3.org/1999/02/22-rdf-syntax-ns#" xmlns:svg="http://www.w3.org/2000/svg" xmlns="http://www.w3.org/2000/svg" xmlns:sodipodi="http://sodipodi.sourceforge.net/DTD/sodipodi-0.dtd" xmlns:inkscape="http://www.inkscape.org/namespaces/inkscape" width="228.29762mm" height="228.29762mm" viewBox="0 0 228.29762 228.29762" version="1.1" id="svg8" inkscape:version="0.92.4 (5da689c313, 2019-01-14)" sodipodi:docname="GamersLogo.svg">
  <defs id="defs2"/>
  <sodipodi:namedview id="base" pagecolor="#ffffff" bordercolor="#666666" borderopacity="1.0" inkscape:pageopacity="0.0" inkscape:pageshadow="2" inkscape:zoom="0.98994949" inkscape:cx="382.59919" inkscape:cy="459.20592" inkscape:document-units="mm" inkscape:current-layer="layer1" showgrid="false" inkscape:window-width="2560" inkscape:window-height="1417" inkscape:window-x="1912" inkscape:window-y="-8" inkscape:window-maximized="1"/>
  <metadata id="metadata5">
    <rdf:RDF>
      <cc:Work rdf:about="">
        <dc:format>image/svg+xml</dc:format>
        <dc:type rdf:resource="http://purl.org/dc/dcmitype/StillImage"/>
        <dc:title/>
      </cc:Work>
    </rdf:RDF>
  </metadata>
  <g inkscape:label="Layer 1" inkscape:groupmode="layer" id="layer1" transform="translate(54.854424,-70.176018)">
    <circle style="fill:#9f3036;fill-opacity:1;fill-rule:evenodd;stroke-width:0.26458299" id="Background" class="Background" cx="59.294388" cy="184.32483" r="114.14881" inkscape:export-filename="C:\Users\Síofra\Documents\Gamers\Publicity\CSC assets\LogoForCSC.png" inkscape:export-xdpi="166.8824" inkscape:export-ydpi="166.8824" inkscape:label="Background"/>
    <path inkscape:export-filename="C:\Users\Síofra\Documents\Gamers\Publicity\CSC assets\LogoForCSC.png" inkscape:export-ydpi="166.8824" inkscape:export-xdpi="166.8824" inkscape:connector-curvature="0" id="PipsL" class="Pips" d="m 25.438274,232.80445 v -10.943 l -15.06209,-12.934 -11.31881044,-7.0158 -22.45069956,36.6694 5.98691,7.67061 29.18579,15.71549 6.36101,-1.30969 4.30299,-18.3346 z" style="display:inline;opacity:1;fill:#ffffff;fill-opacity:1;stroke:none;stroke-width:0.26458299px;stroke-linecap:butt;stroke-linejoin:miter;stroke-opacity:1" inkscape:label="PipsL"/>
    <path inkscape:export-filename="C:\Users\Síofra\Documents\Gamers\Publicity\CSC assets\LogoForCSC.png" inkscape:export-ydpi="166.8824" inkscape:export-xdpi="166.8824" inkscape:connector-curvature="0" id="DiceL" class="Dice" d="m -0.16742644,200.12015 c -1.95368996,-0.054 -3.86959996,0.93861 -4.92008996,2.7559 l -19.8168996,34.2806 c -1.52811,2.64341 -0.63001,6.00221 2.01329,7.53031 l 34.2811,19.81629 c 2.64341,1.52811 6.0012,0.6301 7.5293,-2.01329 l 6.55671,-11.3425 c 0.078,-1.9328 -0.038,-3.578 -0.038,-3.578 v -14.76501 a 5.9348402,5.9348402 0 0 1 -0.6945,-0.3375 5.9348402,5.9348402 0 0 1 -2.1678,-8.108 5.9348402,5.9348402 0 0 1 2.8623,-2.4975 v -0.3028 c 0,-1.11089 -2.2524,-1.2275 -2.6417,-2.33689 -0.4268,-1.2163 0.78029,-2.0853 0.661,-3.81 -0.11941,-1.7248 -1.08711,-2.05761 -1.47391,-3.1502 -0.014,-0.039 -0.024,-0.082 -0.036,-0.123 L 2.4421636,200.86326 c -0.82609,-0.47751 -1.72169004,-0.71861 -2.60969004,-0.74311 z m 1.20560004,6.04151 a 5.9348402,5.9348402 0 0 1 3.2468,0.79009 5.9348402,5.9348402 0 0 1 2.16791,8.1086 5.9348402,5.9348402 0 0 1 -8.10811,2.1678 5.9348402,5.9348402 0 0 1 -2.1678,-8.108 5.9348402,5.9348402 0 0 1 4.8612,-2.95849 z m 5.61931,20.5109 a 5.9348402,5.9348402 0 0 1 5.3e-4,0 5.9348402,5.9348402 0 0 1 3.2469,0.79009 5.9348402,5.9348402 0 0 1 2.1678004,8.108 5.9348402,5.9348402 0 0 1 -8.1086004,2.1684 5.9348402,5.9348402 0 0 1 -2.1678,-8.1086 5.9348402,5.9348402 0 0 1 4.8612,-2.95789 z m -20.7501096,5.6653 a 5.9348402,5.9348402 0 0 1 3.2468,0.79009 5.9348402,5.9348402 0 0 1 2.1682996,8.10851 5.9348402,5.9348402 0 0 1 -8.1084996,2.1679 5.9348402,5.9348402 0 0 1 -2.1678,-8.10861 5.9348402,5.9348402 0 0 1 4.8612,-2.95789 z m 26.3322,15.3019 a 5.9348402,5.9348402 0 0 1 3.24731,0.7901 5.9348402,5.9348402 0 0 1 2.1679,8.10909 5.9348402,5.9348402 0 0 1 -8.1086104,2.1678 5.9348402,5.9348402 0 0 1 -2.1678,-8.10859 5.9348402,5.9348402 0 0 1 4.8612004,-2.9584 z" style="display:inline;opacity:1;fill:#dca948;fill-opacity:1;stroke:none;stroke-width:0.223216;stroke-opacity:1" inkscape:label="DiceL"/>
    <path inkscape:export-filename="C:\Users\Síofra\Documents\Gamers\Publicity\CSC assets\LogoForCSC.png" inkscape:export-ydpi="166.8824" inkscape:export-xdpi="166.8824" inkscape:connector-curvature="0" id="PipsR" class="Pips" d="m 86.803784,160.70985 9.6217,-41.8277 10.092996,-7.9214 7.8141,14.3359 -8.2854,35.81411 -5.3454,9.889 -7.750796,-1.06911 z" style="display:inline;opacity:1;fill:#ffffff;fill-opacity:1;stroke:none;stroke-width:0.26458299px;stroke-linecap:butt;stroke-linejoin:miter;stroke-opacity:1" inkscape:label="PipsR"/>
    <path inkscape:export-filename="C:\Users\Síofra\Documents\Gamers\Publicity\CSC assets\LogoForCSC.png" inkscape:export-ydpi="166.8824" inkscape:export-xdpi="166.8824" inkscape:connector-curvature="0" id="DiceR" class="Dice" d="m 106.51858,110.96065 c -1.0222,-0.028 -2.0642,0.2403 -2.9957,0.8326 l -22.774296,14.4802 c 0,0.04 0,0.08 0,0.1215 v 2.5605 c -0.01,1.2916 0.7161,1.4134 1.5239,2.205 0.8642,0.8469 1.0175,1.3462 1.0175,2.7498 v 2.56001 c 0,2.01949 -1.2211,1.89009 -1.2211,3.32019 v 19.3146 l 8.0853,12.7165 c 1.5793,2.484 4.85,3.2118 7.3339,1.6325 l 32.213096,-20.4809 c 2.4839,-1.57929 3.2122,-4.8505 1.6329,-7.33449 l -20.4809,-32.21301 c -0.9871,-1.5525 -2.6351,-2.4189 -4.3388,-2.465 z m -1.1317,5.778 a 5.7214635,5.7214635 0 0 1 4.6359,2.6484 5.7214635,5.7214635 0 0 1 -1.7586,7.8982 5.7214635,5.7214635 0 0 1 -7.8982,-1.7585 5.7214635,5.7214635 0 0 1 1.7586,-7.8977 5.7214635,5.7214635 0 0 1 3.2623,-0.8904 z m -9.148296,40.37841 a 5.7214635,5.7214635 0 0 1 4.635396,2.64839 5.7214635,5.7214635 0 0 1 -1.757996,7.8977 5.7214635,5.7214635 0 0 1 -7.8983,-1.758 5.7214635,5.7214635 0 0 1 1.7586,-7.8982 5.7214635,5.7214635 0 0 1 3.2623,-0.88989 z" style="display:inline;opacity:1;fill:#dca948;fill-opacity:1;stroke:none;stroke-width:0.21518999;stroke-opacity:1" inkscape:label="DiceR"/>
    <path inkscape:export-filename="C:\Users\Síofra\Documents\Gamers\Publicity\CSC assets\LogoForCSC.png" inkscape:export-ydpi="166.8824" inkscape:export-xdpi="166.8824" inkscape:connector-curvature="0" id="Tower" class="Tower" d="m 59.389874,84.71735 c 0,0 -2.7741,0.9578 -5.0457,3.3569 v 5.3e-4 c -2.2714,2.399 -2.9766,3.3182 -2.9766,5.3625 v 1.4883 c 0,0.8243 -1.25479,0.7171 -1.7011,1.7952 -0.3537,0.8543 -0.2807,1.6448 0,2.3621 0.3793,0.9697 1.9265,0.388 1.9265,2.1203 v 2.0376 0.9452 2.2743 c 0,1.5836 -1.03129,1.4717 -1.076,1.9776 -0.074,0.8439 0.3483,1.2731 0.4724,1.7363 0.3342,1.2475 0.8352,2.6256 0,3.4608 -0.72,0.72 -6.9924,3.0668 -6.9924,6.2369 v 3.685 c 0,1.3167 -2.268,1.6802 -2.268,3.7274 v 2.3818 c 0.01,1.2012 -0.6663,1.3143 -1.4175,2.0505 -0.8037,0.7876 -0.9462,1.2522 -0.9462,2.5575 v 2.3802 c 0,1.8781 1.1358,1.7581 1.1358,3.0882 v 36.06956 c 0,0 -0.05,0.35831 -0.1891,0.37831 -1.6675,1.09239 -3.4964,1.60879 -3.4964,5.00799 0,4.4898 -0.073,5.56411 -0.8977,6.4373 -0.8386,0.8875 -3.3543,0.78481 -3.3543,2.1616 v 6.52001 c 0,1.4464 -2.5491,1.29519 -2.64579,2.85879 v 2.43291 c 0,0.8568 -0.6552,2.0789 -1.51211,2.0789 h -3.0236 c -0.86349,0 -0.75599,2.03609 -0.75599,3.3073 0,0.7194 1.21849,0.8353 1.6061,1.44129 0.404,0.63161 0.3556,1.80491 0.6615,2.66911 0.35969,1.01619 1.2595,1.32539 1.3704,2.92949 0.111,1.6041 -1.01131,2.41231 -0.6144,3.54351 0.362,1.0317 2.45669,1.14039 2.45669,2.17349 v 24.19021 c 0,0 0.4039,5.6204 -0.85009,7.9851 -1.01871,2.4323 -3.0241,4.4886 -3.0241,4.4886 v 7.6538 c 0,0.6915 -1.03921,1.1037 -1.03921,1.7952 v 1.2521 c 0,0.2845 0.2824,0.6377 0.56691,0.6377 h 0.56689 c 0.46821,0 1.5478,0.9452 2.1497,0.9452 h 19.4893 c 0.3521,0 0.4728,-0.9452 0.4728,-0.9452 0.4503,-0.9006 1.5116,-0.024 1.5116,-2.1022 v -34.75029 c 0,0 1.978,-6.13921 9.4728,-6.13921 7.3836,-0.018 9.40661,6.14171 9.40661,6.14171 v 34.7504 c 0,2.0777 1.0613,1.2021 1.5116,2.10269 0,0 0.1206,0.94461 0.4728,0.94461 h 19.4893 c 0.6018,0 1.6814,-0.94461 2.1497,-0.94461 h 0.5669 c 0.2844,0 0.5669,-0.35369 0.5669,-0.63819 v -1.25161 c 0,-0.69149 -1.0392,-1.10419 -1.0392,-1.79579 v -7.6538 c 0,0 -2.0055,-2.05621 -3.0241,-4.4886 -1.254,-2.36471 -0.8501,-7.98451 -0.8501,-7.98451 v -24.19079 c 0,-1.0331 2.0947,-1.14121 2.4567,-2.17301 0.3969,-1.1311 -0.7254,-1.93989 -0.6145,-3.54389 0.111,-1.6041 1.0108,-1.9129 1.3705,-2.92911 0.3059,-0.8641 0.2575,-2.038 0.6615,-2.66959 0.3876,-0.60591 1.6061,-0.72141 1.6061,-1.44071 0,-1.27129 0.1075,-3.30729 -0.7561,-3.30729 h -3.0236 c -0.8568,0 -1.512,-1.2221 -1.512,-2.0789 v -2.4335 c -0.097,-1.56361 -2.6458,-1.41181 -2.6458,-2.85821 v -6.52 c 0,-1.3768 -2.5158,-1.27409 -3.3543,-2.16159 -0.825,-0.87321 -0.8977,-1.9475 -0.8977,-6.43741 0,-3.3991 -1.8289,-3.916 -3.4964,-5.0085 -0.1394,-0.02 -0.1891,-0.3777 -0.1891,-0.3777 v -36.07019 c 0,-1.33001 1.1358,-1.2095 1.1358,-3.0876 v -2.38081 c 0,-1.3053 -0.1425,-1.7698 -0.9462,-2.5574 -0.7512,-0.7363 -1.4235,-0.8493 -1.4175,-2.0506 v -2.3817 c 0,-2.0472 -2.2681,-2.4102 -2.2681,-3.7269 v -3.6856 c 0,-3.17 -6.2723,-5.5163 -6.9923,-6.2363 -0.83521,-0.8353 -0.3342,-2.2134 0,-3.4608 0.1241,-0.4632 0.5468,-0.8925 0.4723,-1.7363 -0.045,-0.5059 -1.07591,-0.3945 -1.07591,-1.9782 v -2.2743 -0.9451 -2.0376 c 0,-1.7324 1.54721,-1.1502 1.92651,-2.1198 0.2807,-0.7173 0.3537,-1.5083 0,-2.3626 -0.4463,-1.0781 -1.7012,-0.9709 -1.7012,-1.7953 v -1.4882 c 0,-2.0445 -0.70491,-2.9633 -2.97651,-5.3625 -2.2717,-2.3993 -5.0457,-3.36 -5.0457,-3.36 z m 10.95231,62.7982 c 2.8181,0 3.1073,1.83741 3.1073,2.38851 v 24.18819 h -6.2141 v -24.18819 c 0,-0.5384 0.2887,-2.38851 3.1068,-2.38851 z m -21.90461,0.01 c 2.8181,0 3.1068,1.8379 3.1068,2.389 v 24.1877 h -6.21409 v -24.1877 c 0,-0.5384 0.28919,-2.38899 3.10729,-2.38899 z m 10.974,0.019 c 2.8181,0 3.1068,1.8374 3.1068,2.3885 v 24.1882 h -6.2141 v -24.1882 c 0,-0.5384 0.2892,-2.3885 3.1073,-2.3885 z" style="display:inline;opacity:1;fill:#ffffff;fill-opacity:1;stroke:none;stroke-width:0.264999;stroke-linecap:butt;stroke-linejoin:miter;stroke-miterlimit:4;stroke-dasharray:none;stroke-opacity:1" inkscape:label="Tower"/>
  </g>
</svg>